<svg width="600" height="600" viewBox="0 0 600 600" fill="none" xmlns="http://www.w3.org/2000/svg">
    <circle cx="299.5" cy="299.5" r="277.5" fill="#191614" />
    <path
        d="M454.41 280.863C462.989 257.269 469.133 229.156 471.605 195.657C471.605 195.657 403.007 211.669 352.546 257.804C348.266 222.774 333.727 181.988 301.79 136C301.79 136 258.745 191.34 248.432 258.708C197.897 211.872 128.395 195.657 128.395 195.657C130.867 229.156 137.03 257.269 145.59 280.863C98.7638 276.011 60 283.87 60 283.87C159.244 464.15 300 402.981 300 402.981C299.926 402.685 299.852 402.409 299.779 402.132C299.908 402.243 300.018 402.353 300.148 402.446C300.111 402.63 300.055 402.796 300 402.981C300 402.981 300.48 403.184 301.402 403.552C301.531 403.663 301.661 403.792 301.79 403.903C301.79 403.903 301.845 403.848 301.937 403.774C319.188 410.286 447.583 451.754 540 283.888C540 283.888 501.236 276.03 454.41 280.881V280.863ZM449.207 222.516C447.472 246.091 443.303 266.105 437.528 283.15C407.288 288.26 375.332 299.31 349.151 321.353C352.509 307.408 354.41 291.802 353.856 274.609C392.325 235.797 449.207 222.497 449.207 222.497V222.516ZM319.446 351.92C320.203 327.422 328.395 307.168 340.351 290.529C338.321 317.166 328.672 337.863 319.446 351.92ZM431.624 298.313C403.21 362.49 349.963 376.288 329.742 379.24C347.638 325.08 391.716 304.899 431.624 298.313ZM340.351 269.979C316.863 295.676 299.779 329.267 300 372.488C300 372.488 300 372.488 299.982 372.488C300.203 329.525 283.303 296.1 260.037 270.459C265.849 216.539 301.273 170.975 301.273 170.975C327.546 208.828 338.284 242.014 340.351 269.998V269.979ZM259.336 290.123C271.328 306.707 279.613 326.906 280.498 351.33C266.144 331.647 260.166 310.617 259.336 290.123ZM150.756 222.497C150.756 222.497 208.118 235.908 246.587 275.089C245.59 289.957 246.421 305.231 249.779 320.468C223.801 298.996 192.269 288.168 162.435 283.132C156.642 266.087 152.491 246.054 150.756 222.497ZM270.221 379.221C250 376.27 196.771 362.453 168.339 298.295C208.247 304.88 252.325 325.061 270.221 379.221ZM91.5314 298.959C91.5314 298.959 118.413 293.499 151.79 296.266C178.413 356.089 221.402 382.671 253.708 394.458C219.539 400.767 146.974 399.66 91.5498 298.959H91.5314ZM346.273 394.458C378.579 382.652 421.55 356.07 448.192 296.266C481.568 293.499 508.45 298.959 508.45 298.959C453.007 399.66 380.461 400.767 346.292 394.458H346.273Z"
        fill="#C7A78A" />
</svg>