<svg width="350" height="287" viewBox="0 0 350 287" fill="none" xmlns="http://www.w3.org/2000/svg">
<path d="M279.107 100.782C285.074 84.3697 289.346 64.8139 291.066 41.5111C291.066 41.5111 243.359 52.6492 208.265 84.7418C205.288 60.374 195.177 32.0027 172.966 0.0126953C172.966 0.0126953 143.031 38.5084 135.858 85.3706C100.713 52.7904 52.3775 41.5111 52.3775 41.5111C54.0969 64.8139 58.3825 84.3697 64.3363 100.782C31.7704 97.4069 4.81177 102.873 4.81177 102.873C73.8315 228.28 171.722 185.729 171.722 185.729C171.67 185.524 171.619 185.331 171.568 185.139C171.657 185.216 171.734 185.293 171.824 185.357C171.799 185.485 171.76 185.601 171.722 185.729C171.722 185.729 172.055 185.87 172.697 186.127C172.787 186.204 172.876 186.294 172.966 186.371C172.966 186.371 173.005 186.332 173.069 186.281C185.066 190.81 274.359 219.657 338.631 102.886C338.631 102.886 311.673 97.4198 279.107 100.795V100.782ZM275.489 60.1944C274.282 76.5936 271.383 90.5162 267.366 102.373C246.336 105.927 224.112 113.614 205.904 128.948C208.24 119.247 209.561 108.391 209.176 96.4317C235.93 69.4333 275.489 60.1815 275.489 60.1815V60.1944ZM185.246 150.21C185.772 133.169 191.469 119.08 199.784 107.506C198.372 126.035 191.661 140.432 185.246 150.21ZM263.26 112.921C243.5 157.563 206.469 167.161 192.406 169.214C204.852 131.54 235.506 117.502 263.26 112.921ZM199.784 93.2109C183.449 111.086 171.568 134.453 171.722 164.518C171.722 164.518 171.722 164.518 171.709 164.518C171.863 134.632 160.109 111.381 143.929 93.5445C147.971 56.0368 172.607 24.342 172.607 24.342C190.879 50.6731 198.347 73.7577 199.784 93.2237V93.2109ZM143.441 107.223C151.782 118.759 157.543 132.81 158.159 149.8C148.176 136.108 144.019 121.48 143.441 107.223ZM67.929 60.1815C67.929 60.1815 107.822 69.5103 134.575 96.7653C133.882 107.108 134.459 117.733 136.795 128.332C118.728 113.395 96.7995 105.863 76.0513 102.36C72.0222 90.5033 69.1352 76.5679 67.929 60.1815ZM151.012 169.201C136.949 167.148 99.9304 157.537 80.1573 112.908C107.911 117.489 138.565 131.527 151.012 169.201ZM26.7405 113.37C26.7405 113.37 45.4357 109.572 68.6476 111.496C87.1632 153.11 117.06 171.601 139.528 179.801C115.764 184.189 65.2986 183.419 26.7533 113.37H26.7405ZM203.903 179.801C226.37 171.588 256.254 153.097 274.783 111.496C297.995 109.572 316.69 113.37 316.69 113.37C278.132 183.419 227.679 184.189 203.915 179.801H203.903Z" fill="#C7A78A"/>
<path d="M0 217.488H9.84163V244.371H27.0356V252.994H0V217.488Z" fill="white"/>
<path d="M27.998 235.337V235.235C27.998 225.033 36.2101 216.77 47.168 216.77C58.126 216.77 66.2482 224.943 66.2482 235.132V235.235C66.2482 245.436 58.0362 253.7 47.0782 253.7C36.1203 253.7 27.998 245.526 27.998 235.337ZM56.2013 235.337V235.235C56.2013 230.115 52.493 225.649 47.0654 225.649C41.6377 225.649 38.0835 230.012 38.0835 235.132V235.235C38.0835 240.355 41.7917 244.82 47.168 244.82C52.5444 244.82 56.2013 240.457 56.2013 235.337Z" fill="white"/>
<path d="M78.515 226.111H67.865V217.488H99.0066V226.111H88.3566V252.994H78.515V226.111Z" fill="white"/>
<path d="M102.869 237.429V217.488H112.864V237.224C112.864 242.344 115.456 244.782 119.408 244.782C123.36 244.782 125.952 242.446 125.952 237.48V217.488H135.948V237.172C135.948 248.631 129.404 253.661 119.306 253.661C109.207 253.661 102.869 248.542 102.869 237.429Z" fill="white"/>
<path d="M139.079 247.72L144.558 241.176C148.061 243.96 151.961 245.436 156.067 245.436C158.711 245.436 160.122 244.525 160.122 242.998V242.895C160.122 241.42 158.954 240.611 154.13 239.495C146.572 237.775 140.734 235.645 140.734 228.331V228.228C140.734 221.633 145.956 216.859 154.476 216.859C160.52 216.859 165.229 218.489 169.091 221.582L164.177 228.536C160.93 226.252 157.376 225.033 154.232 225.033C151.846 225.033 150.678 226.047 150.678 227.317V227.42C150.678 229.037 151.897 229.755 156.812 230.872C164.985 232.643 170.053 235.286 170.053 241.933V242.036C170.053 249.286 164.318 253.597 155.695 253.597C149.408 253.597 143.416 251.621 139.053 247.707L139.079 247.72Z" fill="white"/>
<path d="M187.671 235.337V235.235C187.671 224.892 195.793 216.77 206.79 216.77C213.026 216.77 217.44 218.694 221.199 221.941L215.412 228.896C212.872 226.766 210.344 225.547 206.841 225.547C201.721 225.547 197.756 229.858 197.756 235.286V235.389C197.756 241.125 201.76 245.231 207.393 245.231C209.779 245.231 211.601 244.717 213.077 243.755V239.444H206.071V232.245H222.405V248.221C218.659 251.313 213.423 253.7 206.982 253.7C195.922 253.7 187.658 246.09 187.658 235.337H187.671Z" fill="white"/>
<path d="M227.897 217.488H237.739V244.371H254.933V252.994H227.897V217.488Z" fill="white"/>
<path d="M255.895 235.337V235.235C255.895 225.033 264.12 216.77 275.078 216.77C286.036 216.77 294.158 224.943 294.158 235.132V235.235C294.158 245.436 285.933 253.7 274.988 253.7C264.043 253.7 255.908 245.526 255.908 235.337H255.895ZM284.098 235.337V235.235C284.098 230.115 280.39 225.649 274.962 225.649C269.535 225.649 265.98 230.012 265.98 235.132V235.235C265.98 240.355 269.689 244.82 275.065 244.82C280.441 244.82 284.098 240.457 284.098 235.337Z" fill="white"/>
<path d="M294.851 217.488H305.257L311.442 238.032L318.294 217.386H326.763L333.615 238.032L339.799 217.488H350L338.131 253.251H329.56L322.4 232.81L315.291 253.251H306.72L294.851 217.488Z" fill="white"/>
<path d="M10.3677 273.743H3.06666V278.042H9.58498V279.286H3.06666V284.535H1.70654V272.485H10.3677V273.743Z" fill="white"/>
<path d="M20.6712 272.485V284.535H19.311V272.485H20.6712Z" fill="white"/>
<path d="M39.2639 272.485H40.5855V284.535H39.4949L31.7191 274.654V284.535H30.3975V272.485H31.6678L39.2639 282.148V272.485Z" fill="white"/>
<path d="M60.3073 280.877C59.9993 281.622 59.563 282.263 58.9856 282.802C58.4211 283.341 57.741 283.765 56.9583 284.073C56.1756 284.381 55.303 284.535 54.3664 284.535H50.1833V272.485H54.3664C55.303 272.485 56.1756 272.639 56.9583 272.947C57.741 273.255 58.4211 273.679 58.9856 274.218C59.5502 274.757 59.9865 275.398 60.3073 276.13C60.6152 276.861 60.7692 277.657 60.7692 278.504C60.7692 279.35 60.6152 280.146 60.3073 280.89V280.877ZM59.0113 276.656C58.7803 276.065 58.4467 275.565 58.0105 275.129C57.5742 274.692 57.0609 274.359 56.4322 274.115C55.8163 273.871 55.1234 273.743 54.3664 273.743H51.5435V283.277H54.3664C55.1234 283.277 55.8163 283.161 56.4322 282.918C57.0481 282.674 57.5742 282.34 58.0105 281.904C58.4339 281.481 58.7675 280.967 59.0113 280.403C59.2423 279.825 59.3577 279.209 59.3577 278.529C59.3577 277.849 59.2423 277.233 59.0113 276.656Z" fill="white"/>
<path d="M86.3419 284.535H84.9818V279.761L79.9775 272.485H81.6328L85.6875 278.516L89.7807 272.485H91.3589L86.3547 279.748V284.535H86.3419Z" fill="white"/>
<path d="M110.003 280.878C109.708 281.635 109.284 282.289 108.746 282.867C108.207 283.444 107.552 283.893 106.795 284.24C106.038 284.586 105.204 284.753 104.28 284.753C103.356 284.753 102.522 284.586 101.778 284.252C101.021 283.919 100.379 283.47 99.8406 282.905C99.3017 282.34 98.891 281.673 98.5959 280.929C98.3008 280.185 98.1597 279.376 98.1597 278.542C98.1597 277.708 98.3136 276.913 98.6088 276.156C98.9039 275.411 99.3273 274.744 99.8662 274.167C100.405 273.589 101.06 273.14 101.817 272.794C102.574 272.46 103.408 272.28 104.332 272.28C105.255 272.28 106.089 272.447 106.834 272.781C107.591 273.114 108.232 273.563 108.771 274.128C109.31 274.693 109.721 275.36 110.016 276.104C110.311 276.848 110.452 277.657 110.452 278.491C110.452 279.325 110.298 280.121 110.003 280.878ZM108.681 276.579C108.45 275.976 108.117 275.437 107.693 275.001C107.27 274.552 106.769 274.192 106.192 273.936C105.615 273.666 104.973 273.538 104.293 273.538C103.613 273.538 102.971 273.666 102.394 273.923C101.817 274.179 101.316 274.539 100.906 274.988C100.495 275.437 100.161 275.963 99.9304 276.566C99.6994 277.169 99.5839 277.811 99.5839 278.504C99.5839 279.197 99.6994 279.838 99.9304 280.454C100.161 281.057 100.495 281.583 100.918 282.033C101.342 282.482 101.842 282.841 102.42 283.098C102.997 283.367 103.639 283.495 104.319 283.495C104.999 283.495 105.64 283.367 106.218 283.11C106.795 282.854 107.296 282.494 107.706 282.045C108.117 281.596 108.438 281.07 108.681 280.467C108.912 279.864 109.041 279.222 109.041 278.529C109.041 277.836 108.925 277.195 108.681 276.579Z" fill="white"/>
<path d="M129.365 279.389C129.365 280.274 129.25 281.044 129.006 281.712C128.762 282.379 128.429 282.931 127.979 283.38C127.543 283.829 127.004 284.163 126.401 284.381C125.785 284.599 125.105 284.714 124.348 284.714C123.591 284.714 122.924 284.599 122.308 284.381C121.692 284.163 121.166 283.829 120.73 283.38C120.294 282.943 119.947 282.392 119.703 281.737C119.459 281.083 119.344 280.326 119.344 279.479V272.473H120.704V279.389C120.704 280.698 121.025 281.699 121.679 282.405C122.334 283.11 123.232 283.457 124.387 283.457C125.542 283.457 126.388 283.123 127.043 282.456C127.697 281.789 128.018 280.801 128.018 279.479V272.473H129.378V279.376L129.365 279.389Z" fill="white"/>
<path d="M147.085 284.535L143.595 279.851H140.157V284.535H138.796V272.485H143.98C144.647 272.485 145.251 272.575 145.777 272.742C146.316 272.909 146.765 273.153 147.15 273.473C147.535 273.794 147.817 274.166 148.022 274.615C148.227 275.052 148.33 275.552 148.33 276.091C148.33 276.592 148.253 277.054 148.086 277.438C147.919 277.836 147.701 278.183 147.406 278.478C147.111 278.773 146.765 279.017 146.367 279.209C145.969 279.402 145.533 279.543 145.058 279.62L148.753 284.535H147.085ZM146.149 274.372C145.61 273.948 144.853 273.743 143.865 273.743H140.131V278.645H143.839C144.288 278.645 144.699 278.593 145.084 278.478C145.469 278.362 145.789 278.196 146.072 277.99C146.341 277.772 146.559 277.515 146.713 277.207C146.867 276.9 146.944 276.54 146.944 276.155C146.944 275.398 146.675 274.808 146.136 274.384L146.149 274.372Z" fill="white"/>
<path d="M170.272 272.485V284.535H168.912V272.485H170.272Z" fill="white"/>
<path d="M188.864 272.485H190.186V284.535H189.108L181.332 274.654V284.535H180.01V272.485H181.281L188.877 282.148V272.485H188.864Z" fill="white"/>
<path d="M208.65 272.485H209.972V284.535H208.894L201.118 274.654V284.535H199.797V272.485H201.067L208.663 282.148V272.485H208.65Z" fill="white"/>
<path d="M228.295 273.718H220.943V277.837H227.512V279.082H220.943V283.303H228.372V284.548H219.583V272.499H228.295V273.744V273.718Z" fill="white"/>
<path d="M245.604 284.535L242.114 279.851H238.676V284.535H237.315V272.485H242.499C243.167 272.485 243.77 272.575 244.296 272.742C244.835 272.909 245.284 273.153 245.669 273.473C246.054 273.794 246.336 274.166 246.541 274.615C246.746 275.052 246.849 275.552 246.849 276.091C246.849 276.592 246.772 277.054 246.605 277.438C246.439 277.836 246.22 278.183 245.925 278.478C245.63 278.773 245.284 279.017 244.886 279.209C244.488 279.402 244.052 279.543 243.577 279.62L247.273 284.535H245.604ZM244.668 274.372C244.129 273.948 243.372 273.743 242.384 273.743H238.65V278.645H242.358C242.807 278.645 243.218 278.593 243.603 278.478C243.988 278.362 244.308 278.196 244.591 277.99C244.86 277.772 245.078 277.515 245.232 277.207C245.386 276.9 245.463 276.54 245.463 276.155C245.463 275.398 245.194 274.808 244.655 274.384L244.668 274.372Z" fill="white"/>
<path d="M267.315 272.485H268.675V283.277H275.463V284.535H267.328V272.485H267.315Z" fill="white"/>
<path d="M285.651 272.485V284.535H284.291V272.485H285.651Z" fill="white"/>
<path d="M303.73 284.201C302.909 284.561 301.985 284.74 300.972 284.74C300.022 284.74 299.162 284.573 298.418 284.253C297.674 283.932 297.02 283.496 296.494 282.931C295.955 282.366 295.557 281.712 295.275 280.955C294.992 280.198 294.851 279.389 294.851 278.53C294.851 277.67 294.992 276.913 295.287 276.156C295.582 275.399 295.993 274.731 296.519 274.154C297.045 273.576 297.687 273.127 298.418 272.781C299.162 272.447 299.984 272.268 300.895 272.268C301.395 272.268 301.857 272.306 302.28 272.37C302.704 272.434 303.089 272.537 303.448 272.678C303.807 272.819 304.141 272.986 304.462 273.191C304.783 273.397 305.09 273.615 305.386 273.872L304.513 274.898C304.282 274.693 304.038 274.5 303.795 274.334C303.538 274.167 303.268 274.026 302.973 273.897C302.678 273.769 302.357 273.679 302.011 273.615C301.665 273.551 301.267 273.512 300.843 273.512C300.176 273.512 299.56 273.641 298.996 273.91C298.431 274.18 297.956 274.526 297.546 274.975C297.148 275.424 296.827 275.95 296.596 276.553C296.365 277.157 296.25 277.798 296.25 278.478C296.25 279.197 296.365 279.877 296.583 280.493C296.801 281.109 297.122 281.635 297.546 282.084C297.956 282.533 298.457 282.88 299.047 283.136C299.637 283.393 300.292 283.508 301.023 283.508C301.716 283.508 302.357 283.393 302.973 283.149C303.576 282.918 304.09 282.623 304.5 282.289V279.287H300.83V278.08H305.809V282.867C305.244 283.367 304.552 283.803 303.73 284.163V284.201Z" fill="white"/>
<path d="M316.42 279.107V284.535H315.06V272.485H316.42V277.836H323.375V272.485H324.735V284.535H323.375V279.107H316.42Z" fill="white"/>
<path d="M338.888 284.535H337.528V273.743H333.486V272.485H342.943V273.743H338.901V284.535H338.888Z" fill="white"/>
</svg>
