<svg width="335" height="193" viewBox="0 0 335 193" fill="none" xmlns="http://www.w3.org/2000/svg">
    <path
        d="M275.107 100.782C281.074 84.3697 285.346 64.8139 287.066 41.5111C287.066 41.5111 239.359 52.6492 204.265 84.7418C201.288 60.374 191.177 32.0027 168.966 0.0126953C168.966 0.0126953 139.031 38.5084 131.858 85.3706C96.7131 52.7904 48.3775 41.5111 48.3775 41.5111C50.0969 64.8139 54.3825 84.3697 60.3363 100.782C27.7704 97.4069 0.811768 102.873 0.811768 102.873C69.8315 228.28 167.722 185.729 167.722 185.729C167.67 185.524 167.619 185.331 167.568 185.139C167.657 185.216 167.734 185.293 167.824 185.357C167.799 185.485 167.76 185.601 167.722 185.729C167.722 185.729 168.055 185.87 168.697 186.127C168.787 186.204 168.876 186.294 168.966 186.371C168.966 186.371 169.005 186.332 169.069 186.281C181.066 190.81 270.359 219.657 334.631 102.886C334.631 102.886 307.673 97.4198 275.107 100.795V100.782ZM271.489 60.1944C270.282 76.5936 267.383 90.5162 263.366 102.373C242.336 105.927 220.112 113.614 201.904 128.948C204.24 119.247 205.561 108.391 205.176 96.4317C231.93 69.4333 271.489 60.1815 271.489 60.1815V60.1944ZM181.246 150.21C181.772 133.169 187.469 119.08 195.784 107.506C194.372 126.035 187.661 140.432 181.246 150.21ZM259.26 112.921C239.5 157.563 202.469 167.161 188.406 169.214C200.852 131.54 231.506 117.502 259.26 112.921ZM195.784 93.2109C179.449 111.086 167.568 134.453 167.722 164.518C167.722 164.518 167.722 164.518 167.709 164.518C167.863 134.632 156.109 111.381 139.929 93.5445C143.971 56.0368 168.607 24.342 168.607 24.342C186.879 50.6731 194.347 73.7577 195.784 93.2237V93.2109ZM139.441 107.223C147.782 118.759 153.543 132.81 154.159 149.8C144.176 136.108 140.019 121.48 139.441 107.223ZM63.929 60.1815C63.929 60.1815 103.822 69.5103 130.575 96.7653C129.882 107.108 130.459 117.733 132.795 128.332C114.728 113.395 92.7995 105.863 72.0513 102.36C68.0222 90.5033 65.1352 76.5679 63.929 60.1815ZM147.012 169.201C132.949 167.148 95.9304 157.537 76.1573 112.908C103.911 117.489 134.565 131.527 147.012 169.201ZM22.7405 113.37C22.7405 113.37 41.4357 109.572 64.6476 111.496C83.1632 153.11 113.06 171.601 135.528 179.801C111.764 184.189 61.2986 183.419 22.7533 113.37H22.7405ZM199.903 179.801C222.37 171.588 252.254 153.097 270.783 111.496C293.995 109.572 312.69 113.37 312.69 113.37C274.132 183.419 223.679 184.189 199.915 179.801H199.903Z"
        fill="#C7A78A" />
</svg>